<svg width="13" height="20" viewBox="0 0 13 20" fill="none" xmlns="http://www.w3.org/2000/svg">
<path d="M2.87455 3.87808C2.87455 2.9295 3.25137 2.01977 3.92212 1.34902C4.59287 0.678275 5.5026 0.301453 6.45118 0.301453C7.39976 0.301453 8.30949 0.678275 8.98024 1.34902C9.65099 2.01977 10.0278 2.9295 10.0278 3.87808V9.83913C10.0278 10.7877 9.65099 11.6974 8.98024 12.3682C8.30949 13.0389 7.39976 13.4158 6.45118 13.4158C5.5026 13.4158 4.59287 13.0389 3.92212 12.3682C3.25137 11.6974 2.87455 10.7877 2.87455 9.83913V3.87808Z" fill="#272727"/>
<path d="M1.08622 8.05084C1.24432 8.05084 1.39594 8.11365 1.50773 8.22544C1.61953 8.33723 1.68233 8.48885 1.68233 8.64695V9.83916C1.68233 11.1039 2.18476 12.3169 3.07909 13.2112C3.97342 14.1056 5.18639 14.608 6.45117 14.608C7.71594 14.608 8.92892 14.1056 9.82325 13.2112C10.7176 12.3169 11.22 11.1039 11.22 9.83916V8.64695C11.22 8.48885 11.2828 8.33723 11.3946 8.22544C11.5064 8.11365 11.658 8.05084 11.8161 8.05084C11.9742 8.05084 12.1258 8.11365 12.2376 8.22544C12.3494 8.33723 12.4122 8.48885 12.4122 8.64695V9.83916C12.4122 11.3169 11.8633 12.742 10.872 13.838C9.88071 14.934 8.51764 15.6226 7.04727 15.7704V18.1846H10.6239C10.782 18.1846 10.9336 18.2474 11.0454 18.3592C11.1572 18.471 11.22 18.6226 11.22 18.7807C11.22 18.9388 11.1572 19.0904 11.0454 19.2022C10.9336 19.314 10.782 19.3768 10.6239 19.3768H2.27843C2.12034 19.3768 1.96872 19.314 1.85692 19.2022C1.74513 19.0904 1.68233 18.9388 1.68233 18.7807C1.68233 18.6226 1.74513 18.471 1.85692 18.3592C1.96872 18.2474 2.12034 18.1846 2.27843 18.1846H5.85506V15.7704C4.38469 15.6226 3.02163 14.934 2.03031 13.838C1.03899 12.742 0.490101 11.3169 0.49012 9.83916V8.64695C0.49012 8.48885 0.552924 8.33723 0.664715 8.22544C0.776506 8.11365 0.928128 8.05084 1.08622 8.05084Z" fill="#272727"/>
</svg>
